Genre:Action | Adventure | Drama | Fantasy | Horror | Thriller
Language:English
 
http://www.imdb.com/title/tt1260572

Source:BluRay.x264-DON

Format : MPEG-4
Format profile : Base Media
Codec ID : isom
File size : 1.97 GiB
Duration : 1h 22mn
Overall bit rate : 3 413 Kbps

Video
Format profile : High@L4.1
Format settings, CABAC : Yes
Format settings, ReFrames : 3 frames
Codec ID : avc1
Codec ID/Info : Advanced Video Coding
Duration : 1h 22mn
Bit rate mode : Variable
Bit rate : 3 000 Kbps
Maximum bit rate : 16.6 Mbps
Width : 1 280 pixels
Height : 720 pixels
Display aspect ratio : 16:9
Frame rate mode : Constant
Frame rate : 25.000 fps
Color space : YUV
Chroma subsampling : 4:2:0
Bit depth : 8 bits
Scan type : Progressive
Bits/(Pixel*Frame) : 0.130
Stream size : 1.71 GiB (87%)
Writing library : x264

Audio
ID : 2
Format : AAC
Format/Info : Advanced Audio Codec
Format version : Version 4
Format profile : LC
Format settings, SBR : No
Codec ID : 40
Duration : 1h 22mn
Bit rate mode : Variable
Bit rate : 441 Kbps
Maximum bit rate : 492 Kbps
Channel(s) : 6 channels
Channel positions : Front: L C R, Side: L R, LFE
Sampling rate : 48.0 KHz
Stream size : 261 MiB (13%)

Plot:
Thor along with his friends travels to mysterious island seeking glory and fame. Upon arriving they.
 
http://img714.imageshack.us/img714/1466/vlcsnap00001vq.png

 
http://img12.imageshack.us/img12/1374/vlcsnap00003u.png